<svg width="225" height="173" viewBox="0 0 225 173" fill="none" xmlns="http://www.w3.org/2000/svg">
<path d="M38.6609 135.248C35.5 138.109 31.5987 139.559 27.0591 139.559C23.9237 139.559 20.916 138.683 18.1228 136.955C18.0207 136.229 17.9645 135.492 17.9645 134.761C17.9645 126.389 24.7765 119.579 33.146 119.579C37.7315 119.579 38.6609 120.266 38.6609 123.663V135.248ZM54.0926 121.302L63.6365 90.8975L73.7677 121.302H54.0926ZM74.1864 138.485H73.972V139.269H91.5841V138.485H91.3696C86.9525 138.485 85.3644 137.555 84.2921 134.335L68.6613 87.4363L68.6102 87.2903H58.2186V88.0756H58.433C60.7973 88.0756 62.2629 88.4459 62.794 89.1756C63.0697 89.5519 63.1055 90.036 62.9063 90.657L48.21 137.477C48.1895 137.536 48.164 137.623 48.1282 137.734C45.6976 145.606 40.3767 149.941 33.146 149.941C26.3697 149.941 20.4258 145.454 18.5619 138.98C21.299 139.885 24.1535 140.344 27.0591 140.344C31.5476 140.344 35.449 138.988 38.6609 136.313V136.328L39.0184 136.012C41.2805 134 43.1137 133.514 44.472 134.57L44.8142 134.837V123.663C44.8142 120.266 45.7436 119.579 50.3291 119.579H50.5436V118.794H33.146C24.3425 118.794 17.1832 125.957 17.1832 134.761C17.1832 135.292 17.2087 135.84 17.27 136.393C10.6929 131.822 6.46479 122.812 6.46479 113.281C6.46479 98.79 15.7023 87.0013 27.0591 87.0013C32.1247 87.0013 36.7817 89.4284 40.1622 93.8311C42.1486 96.557 42.9554 99.5994 42.9554 104.33V104.543H43.7418V92.6612H42.9554V92.8747C42.9554 95.4775 42.6899 95.7598 42.649 95.7879C42.6184 95.7854 42.4856 95.7343 42.1282 95.2073C40.4737 92.504 35.689 86.2169 27.0591 86.2169C12.138 86.2169 0 98.358 0 113.281C0 124.567 7.09285 134.755 17.6683 138.669C19.4556 145.773 25.8029 150.726 33.146 150.726C44.2321 150.726 47.924 141.136 48.7921 138.196L53.8475 122.086H74.0332L78.3329 134.989C78.6699 136.108 78.6443 136.874 78.2563 137.399C77.7099 138.13 76.3822 138.485 74.1864 138.485" fill="url(#paint0_linear_1110_7156)"/>
<path d="M103.936 88.0703H111.244C115.027 88.0703 122.845 91.2118 122.845 100.921C122.845 106.937 116.988 113.067 111.244 113.067L103.936 113.063V88.0703ZM126.308 126.115C124.168 117.504 117.841 114.571 114.685 113.629C123.172 112.535 128.999 107.424 128.999 100.921C128.999 90.9177 118.382 87.2865 111.244 87.2865H92.0586V88.0703H92.268C96.8587 88.0703 97.7829 88.7571 97.7829 92.1534V134.397C97.7829 137.794 96.8587 138.481 92.268 138.481H92.0586V139.265H109.666V138.481H109.456C104.866 138.481 103.936 137.794 103.936 134.397V113.848L111.244 113.851C114.103 113.851 117.999 117.194 120.343 126.576C122.452 134.999 127.339 139.269 134.871 139.269H135.086V138.484H134.871C130.822 138.484 127.727 131.821 126.308 126.115" fill="url(#paint1_linear_1110_7156)"/>
<path d="M147.906 88.0749H153.421C165.329 88.0749 173.969 98.6749 173.969 113.28C173.969 127.884 165.329 138.484 153.421 138.484H147.906V88.0749ZM153.421 87.2895H136.023V88.0749H136.233C140.824 88.0749 141.753 88.7617 141.753 92.1565V134.402C141.753 137.797 140.824 138.484 136.233 138.484H136.023V139.269H153.421C169.353 139.269 180.48 128.581 180.48 113.28C180.48 97.9773 169.353 87.2895 153.421 87.2895Z" fill="url(#paint2_linear_1110_7156)"/>
<path d="M175.52 139.293V138.476H176.592V138.425H177.715V138.374H178.277V138.323H178.686V138.272H178.992V138.221H179.247V138.17H179.451V138.118H179.605V138.067H179.758V138.016H179.911V137.965H180.064V137.914H180.166V137.863H180.269V137.812H180.371V137.761H180.473V137.71H180.575V137.659H180.626V137.608H180.677V137.557H180.779V137.506H180.83V137.455H180.881V137.404H180.983V137.353H181.034V137.301H181.086V137.25H181.137V137.199H181.188V137.148H181.239V137.097H181.29V136.995H181.341V136.944H181.392V136.893H181.443V136.842H181.494V136.74H181.545V136.689H181.596V136.587H181.647V136.535H181.698V136.433H181.749V136.331H181.8V136.229H181.852V136.127H181.903V136.076H181.954V135.923H182.005V135.821H182.056V135.718H182.107V135.616H182.158V135.463H182.209V135.361H182.26V135.208H182.311V135.055H182.362V134.952H182.413V134.799H182.464V134.646H182.515V134.493H182.566V134.34H182.617V134.135H182.669V133.982H182.72V133.829H182.771V133.676H182.822V133.523H182.873V133.318H182.924V133.165H182.975V133.012H183.026V132.859H183.077V132.706H183.128V132.501H183.179V132.348H183.23V132.195H183.281V132.042H183.332V131.889H183.383V131.735H183.435V131.531H183.486V131.378H183.537V131.225H183.588V131.072H183.639V130.918H183.69V130.714H183.741V130.561H183.792V130.408H183.843V130.255H183.894V130.101H183.945V129.897H183.996V129.744H184.047V129.591H184.098V129.438H184.149V129.284H184.2V129.131H184.252V128.927H184.303V128.774H184.354V128.621H184.405V128.467H184.456V128.314H184.507V128.11H184.558V127.957H184.609V127.803H184.66V127.65H184.711V127.497H184.762V127.344H184.813V127.14H184.864V126.986H184.915V126.833H184.966V126.68H185.018V126.527H185.069V126.323H185.12V126.169H185.171V126.016H185.222V125.863H185.273V125.71H185.324V125.506H185.375V125.352H185.426V125.199H185.477V125.046H185.528V124.893H185.579V124.74H185.63V124.535H185.681V124.382H185.732V124.229H185.783V124.076H185.835V123.923H185.886V123.718H185.937V123.565H185.988V123.412H186.039V123.259H186.09V123.106H186.141V122.901H186.192V122.748H186.243V122.595H186.294V122.442H186.345V122.289H186.396V122.135H186.447V121.931H186.498V121.778H186.549V121.625H186.601V121.471H186.652V121.318H186.703V121.114H186.754V120.961H186.805V120.808H186.856V120.654H186.907V120.501H186.958V120.348H187.009V120.144H187.06V119.991H187.111V119.837H187.162V119.684H187.213V119.531H187.264V119.327H187.315V119.174H187.366V119.02H187.418V118.867H187.469V118.714H187.52V118.51H187.571V118.357H187.622V118.203H187.673V118.05H187.724V117.897H187.775V117.744H187.826V117.54H187.877V117.386H187.928V117.233H187.979V117.08H188.03V116.927H188.081V116.722H188.132V116.569H188.184V116.416H188.235V116.263H188.286V116.11H188.337V115.905H188.388V115.752H188.439V115.599H188.49V115.446H188.541V115.293H188.592V115.139H188.643V114.935H188.694V114.782H188.745V114.629H188.796V114.476H188.847V114.322H188.898V114.118H188.949V113.965H189.001V113.812H189.052V113.659H189.103V113.505H189.154V113.352H189.205V113.148H189.256V112.995H189.307V112.842H189.358V112.688H189.409V112.535H189.46V112.331H189.511V112.178H189.562V112.025H189.613V111.871H189.664V111.718H189.715V111.514H189.767V111.361H189.818V111.208H189.869V111.054H189.92V110.901H189.971V110.748H190.022V110.544H190.073V110.39H190.124V110.237H190.175V110.084H190.226V109.931H190.277V109.727H190.328V109.573H190.379V109.42H190.43V109.267H190.481V109.114H190.532V108.91H190.584V108.756H190.635V108.603H190.686V108.45H190.737V108.297H190.788V108.144H190.839V107.939H190.89V107.786H190.941V107.633H190.992V107.48H191.043V107.327H191.094V107.122H191.145V106.969H191.196V106.816H191.247V106.663H191.298V106.51H191.35V106.356H191.401V106.152H191.452V105.999H191.503V105.846H191.554V105.693H191.605V105.539H191.656V105.335H191.707V105.182H191.758V105.029H191.809V104.876H191.86V104.722H191.911V104.518H191.962V104.365H192.013V104.212H192.064V104.059H192.115V103.905H192.167V103.752H192.218V103.548H192.269V103.395H192.32V103.241H192.371V103.088H192.422V102.935H192.473V102.731H192.524V102.578H192.575V102.424H192.626V102.271H192.677V102.118H192.728V101.965H192.779V101.761H192.83V101.607H192.881V101.454H192.933V101.301H192.984V101.148H193.035V100.944H193.086V100.79H193.137V100.637H193.188V100.484H193.239V100.331H193.29V100.127H193.341V99.9734H193.392V99.8202H193.443V99.667H193.494V99.5138H193.545V99.3606H193.596V99.1563H193.647V99.0031H193.698V98.8499H193.75V98.6967H193.801V98.5435H193.852V98.3393H193.903V98.1861H193.954V98.0329H194.005V97.8797H194.056V97.7265H194.107V97.5223H194.158V97.3691H194.209V97.2159H194.26V97.0627H194.311V96.9095H194.362V96.7563H194.413V96.552H194.464V96.3988H194.516V96.2456H194.567V96.0925H194.618V95.9393H194.669V95.735H194.72V95.5818H194.771V95.4286H194.822V95.2754H194.873V95.1222H194.924V94.969H194.975V94.7648H195.026V94.6116H195.077V94.4584H195.128V94.3052H195.179V94.152H195.23V93.9477H195.281V93.7946H195.333V93.6414H195.384V93.4882H195.435V93.335H195.486V93.1307H195.537V92.9775H195.588V92.8243H195.639V92.6711H195.69V92.5179H195.741V92.3647H195.792V92.1605H195.843V92.0073H195.894V91.8541H195.945V91.7009H195.996V91.5477H196.047V91.3435H196.099V91.1903H196.15V91.0371H196.201V90.8839H196.252V90.7307H196.303V90.5775H196.354V90.3222H196.405V89.6583H196.354V89.4541H196.303V89.3519H196.252V89.2498H196.201V89.1988H196.15V89.0966H196.099V89.0456H196.047V88.9945H195.996V88.9434H195.894V88.8924H195.843V88.8413H195.741V88.7902H195.69V88.7392H195.588V88.6881H195.486V88.637H195.384V88.586H195.281V88.5349H195.128V88.4839H194.975V88.4328H194.771V88.3817H194.567V88.3307H194.362V88.2796H194.107V88.2285H193.698V88.1775H193.137V88.1264H191.605V87.2583H202.073V87.4115H202.124V87.5647H202.175V87.7179H202.226V87.8711H202.277V88.0243H202.328V88.1775H202.379V88.3307H202.43V88.4839H202.482V88.637H202.533V88.7902H202.584V88.9434H202.635V89.0966H202.686V89.2498H202.737V89.403H202.788V89.5562H202.839V89.7094H202.89V89.8626H202.941V90.0158H202.992V90.169H203.043V90.3222H203.094V90.4754H203.145V90.6286H203.196V90.7818H203.248V90.9349H203.299V91.0881H203.35V91.2413H203.401V91.3945H203.452V91.5477H203.503V91.7009H203.554V91.8541H203.605V92.0073H203.656V92.1605H203.707V92.3137H203.758V92.4669H203.809V92.6201H203.86V92.7733H203.911V92.9265H203.962V93.0797H204.013V93.2328H204.065V93.386H204.116V93.5392H204.167V93.6924H204.218V93.8456H204.269V93.9988H204.32V94.152H204.371V94.3052H204.422V94.4584H204.473V94.6116H204.524V94.7648H204.575V94.918H204.626V95.0712H204.677V95.2244H204.728V95.3776H204.779V95.5307H204.831V95.6839H204.882V95.8371H204.933V95.9903H204.984V96.1435H205.035V96.2967H205.086V96.4499H205.137V96.6031H205.188V96.7563H205.239V96.9095H205.29V97.0627H205.341V97.2159H205.392V97.3691H205.443V97.5223H205.494V97.6755H205.545V97.8286H205.596V97.9818H205.648V98.135H205.699V98.2882H205.75V98.4414H205.801V98.5946H205.852V98.7478H205.903V98.901H205.954V99.0542H206.005V99.2074H206.056V99.3606H206.107V99.5138H206.158V99.667H206.209V99.8202H206.26V99.9734H206.311V100.127H206.362V100.28H206.414V100.433H206.465V100.586H206.516V100.739H206.567V100.893H206.618V101.046H206.669V101.199H206.72V101.352H206.771V101.505H206.822V101.658H206.873V101.812H206.924V101.965H206.975V102.118H207.026V102.271H207.077V102.424H207.128V102.578H207.179V102.731H207.231V102.884H207.282V103.037H207.333V103.19H207.384V103.344H207.435V103.497H207.486V103.65H207.537V103.803H207.588V103.956H207.639V104.11H207.69V104.263H207.741V104.416H207.792V104.569H207.843V104.722H207.894V104.876H207.945V105.029H207.997V105.182H208.048V105.335H208.099V105.488H208.15V105.642H208.201V105.795H208.252V105.948H208.303V106.101H208.354V106.254H208.405V106.407H208.456V106.561H208.507V106.714H208.558V106.867H208.609V107.02H208.66V107.173H208.711V107.327H208.762V107.48H208.814V107.633H208.865V107.786H208.916V107.939H208.967V108.093H209.018V108.246H209.069V108.399H209.12V108.552H209.171V108.705H209.222V108.859H209.273V109.012H209.324V109.165H209.375V109.318H209.426V109.471H209.477V109.625H209.528V109.778H209.58V109.931H209.631V110.084H209.682V110.237H209.733V110.39H209.784V110.544H209.835V110.697H209.886V110.85H209.937V111.003H209.988V111.156H210.039V111.31H210.09V111.463H210.141V111.616H210.192V111.769H210.243V111.922H210.294V112.076H210.345V112.229H210.397V112.382H210.448V112.535H210.499V112.688H210.55V112.842H210.601V112.995H210.652V113.148H210.703V113.301H210.754V113.454H210.805V113.608H210.856V113.761H210.907V113.914H210.958V114.067H211.009V114.22H211.06V114.374H211.111V114.527H211.163V114.68H211.214V114.833H211.265V114.986H211.316V115.139H211.367V115.293H211.418V115.446H211.469V115.599H211.52V115.752H211.571V115.905H211.622V116.059H211.673V116.212H211.724V116.365H211.775V116.518H211.826V116.671H211.877V116.825H211.928V116.978H211.98V117.131H212.031V117.284H212.082V117.437H212.133V117.591H212.184V117.744H212.235V117.897H212.286V118.05H212.337V118.203H212.388V118.357H212.439V118.51H212.49V118.663H212.541V118.816H212.592V118.969H212.643V119.123H212.694V119.276H212.746V119.429H212.797V119.582H212.848V119.735H212.899V119.888H212.95V120.042H213.001V120.195H213.052V120.348H213.103V120.501H213.154V120.654H213.205V120.808H213.256V120.961H213.307V121.114H213.358V121.267H213.409V121.42H213.46V121.574H213.511V121.727H213.563V121.88H213.614V122.033H213.665V122.186H213.716V122.34H213.767V122.493H213.818V122.646H213.869V122.799H213.92V122.952H213.971V123.106H214.022V123.259H214.073V123.412H214.124V123.565H214.175V123.718H214.226V123.872H214.277V124.025H214.329V124.178H214.38V124.331H214.431V124.484H214.482V124.637H214.533V124.791H214.584V124.944H214.635V125.097H214.686V125.25H214.737V125.403H214.788V125.557H214.839V125.71H214.89V125.863H214.941V126.016H214.992V126.169H215.043V126.323H215.094V126.476H215.146V126.629H215.197V126.782H215.248V126.935H215.299V127.089H215.35V127.242H215.401V127.395H215.452V127.548H215.503V127.701H215.554V127.855H215.605V128.008H215.656V128.161H215.707V128.314H215.758V128.467H215.809V128.621H215.86V128.774H215.912V128.927H215.963V129.08H216.014V129.233H216.065V129.386H216.116V129.54H216.167V129.693H216.218V129.846H216.269V129.999H216.32V130.152H216.371V130.306H216.422V130.459H216.473V130.612H216.524V130.765H216.575V130.918H216.626V131.072H216.677V131.225H216.729V131.378H216.78V131.531H216.831V131.684H216.882V131.838H216.933V131.991H216.984V132.144H217.035V132.297H217.086V132.45H217.137V132.604H217.188V132.757H217.239V132.91H217.29V133.063H217.341V133.216H217.392V133.369H217.443V133.523H217.495V133.676H217.546V133.829H217.597V133.982H217.648V134.135H217.699V134.289H217.75V134.442H217.801V134.544H217.852V134.697H217.903V134.85H217.954V134.952H218.005V135.106H218.056V135.208H218.107V135.31H218.158V135.463H218.209V135.514H218.26V135.616H218.312V135.718H218.363V135.821H218.414V135.923H218.465V136.025H218.516V136.076H218.567V136.178H218.618V136.28H218.669V136.331H218.72V136.382H218.771V136.484H218.822V136.535H218.873V136.587H218.924V136.689H218.975V136.74H219.026V136.791H219.077V136.842H219.129V136.893H219.18V136.944H219.231V136.995H219.282V137.046H219.333V137.097H219.384V137.148H219.435V137.199H219.486V137.25H219.588V137.301H219.639V137.353H219.69V137.404H219.792V137.455H219.843V137.506H219.946V137.557H219.997V137.608H220.099V137.659H220.201V137.71H220.303V137.761H220.405V137.812H220.507V137.863H220.66V137.914H220.763V137.965H220.916V138.016H221.069V138.067H221.273V138.118H221.426V138.17H221.682V138.221H221.937V138.272H222.243V138.323H222.601V138.374H223.163V138.425H224.133V138.476H225.001V139.293H207.384V138.476H208.099V138.425H208.967V138.374H209.375V138.323H209.733V138.272H209.988V138.221H210.192V138.17H210.345V138.118H210.55V138.067H210.703V138.016H210.805V137.965H210.907V137.914H211.009V137.863H211.111V137.812H211.163V137.761H211.265V137.71H211.316V137.659H211.418V137.608H211.469V137.557H211.52V137.506H211.571V137.455H211.622V137.404H211.673V137.301H211.724V137.25H211.775V137.097H211.826V136.995H211.877V136.842H211.928V136.535H211.98V136.127H211.928V135.718H211.877V135.463H211.826V135.259H211.775V135.106H211.724V134.901H211.673V134.748H211.622V134.595H211.571V134.442H211.52V134.289H211.469V134.135H211.418V133.982H211.367V133.829H211.316V133.676H211.265V133.523H211.214V133.369H211.163V133.216H211.111V133.063H211.06V132.91H211.009V132.757H210.958V132.604H210.907V132.45H210.856V132.297H210.805V132.144H210.754V131.991H210.703V131.838H210.652V131.684H210.601V131.531H210.55V131.378H210.499V131.225H210.448V131.072H210.397V130.918H210.345V130.765H210.294V130.612H210.243V130.459H210.192V130.306H210.141V130.152H210.09V129.999H210.039V129.846H209.988V129.693H209.937V129.54H209.886V129.386H209.835V129.233H209.784V129.08H209.733V128.927H209.682V128.774H209.631V128.621H209.58V128.467H209.528V128.314H209.477V128.161H209.426V128.008H209.375V127.855H209.324V127.701H209.273V127.548H209.222V127.395H209.171V127.242H209.12V127.089H209.069V126.935H209.018V126.782H208.967V126.629H208.916V126.476H208.865V126.323H208.814V126.169H208.762V126.016H208.711V125.863H208.66V125.71H208.609V125.557H208.558V125.403H208.507V125.25H208.456V125.097H208.405V124.944H208.354V124.791H208.303V124.637H208.252V124.484H208.201V124.331H208.15V124.178H208.099V124.025H208.048V123.872H207.997V123.718H207.945V123.565H207.894V123.412H207.843V123.259H207.792V123.106H207.741V122.952H207.69V122.799H207.639V122.646H207.588V122.493H207.537V122.34H207.486V122.186H207.435V122.135H187.264V122.289H187.213V122.442H187.162V122.595H187.111V122.799H187.06V122.952H187.009V123.106H186.958V123.259H186.907V123.412H186.856V123.616H186.805V123.769H186.754V123.923H186.703V124.076H186.652V124.229H186.601V124.382H186.549V124.586H186.498V124.74H186.447V124.893H186.396V125.046H186.345V125.199H186.294V125.403H186.243V125.557H186.192V125.71H186.141V125.863H186.09V126.016H186.039V126.22H185.988V126.374H185.937V126.527H185.886V126.68H185.835V126.833H185.783V126.986H185.732V127.191H185.681V127.344H185.63V127.497H185.579V127.65H185.528V127.803H185.477V128.008H185.426V128.161H185.375V128.314H185.324V128.467H185.273V128.621H185.222V128.774H185.171V128.978H185.12V129.131H185.069V129.284H185.018V129.438H184.966V129.591H184.915V129.795H184.864V129.948H184.813V130.101H184.762V130.255H184.711V130.408H184.66V130.612H184.609V130.765H184.558V130.918H184.507V131.072H184.456V131.225H184.405V131.378H184.354V131.582H184.303V131.735H184.252V131.889H184.2V132.042H184.149V132.195H184.098V132.399H184.047V132.552H183.996V132.706H183.945V132.859H183.894V133.012H183.843V133.165H183.792V133.369H183.741V133.523H183.69V133.676H183.639V133.829H183.588V133.982H183.537V134.187H183.486V134.34H183.435V134.493H183.383V134.646H183.332V134.85H183.281V135.055H183.23V135.259H183.179V135.463H183.128V135.77H183.077V136.178H183.026V136.484H183.077V136.944H183.128V137.046H183.179V137.199H183.23V137.301H183.281V137.404H183.332V137.455H183.383V137.506H183.435V137.557H183.486V137.608H183.537V137.659H183.588V137.71H183.639V137.761H183.741V137.812H183.792V137.863H183.894V137.914H183.996V137.965H184.098V138.016H184.2V138.067H184.354V138.118H184.507V138.17H184.711V138.221H184.915V138.272H185.171V138.323H185.528V138.374H185.988V138.425H187.009V138.476H187.775V139.293H175.52ZM187.571 121.216V121.267H207.128V121.165H207.077V121.012H207.026V120.859H206.975V120.706H206.924V120.552H206.873V120.399H206.822V120.246H206.771V120.093H206.72V119.94H206.669V119.786H206.618V119.633H206.567V119.48H206.516V119.327H206.465V119.174H206.414V119.02H206.362V118.867H206.311V118.714H206.26V118.561H206.209V118.408H206.158V118.254H206.107V118.101H206.056V117.948H206.005V117.795H205.954V117.642H205.903V117.488H205.852V117.335H205.801V117.182H205.75V117.029H205.699V116.876H205.648V116.722H205.596V116.569H205.545V116.416H205.494V116.263H205.443V116.11H205.392V115.957H205.341V115.803H205.29V115.65H205.239V115.497H205.188V115.293H205.137V115.139H205.086V114.986H205.035V114.833H204.984V114.68H204.933V114.527H204.882V114.374H204.831V114.22H204.779V114.067H204.728V113.914H204.677V113.761H204.626V113.608H204.575V113.454H204.524V113.301H204.473V113.148H204.422V112.995H204.371V112.842H204.32V112.688H204.269V112.535H204.218V112.382H204.167V112.229H204.116V112.076H204.065V111.922H204.013V111.769H203.962V111.616H203.911V111.463H203.86V111.31H203.809V111.156H203.758V111.003H203.707V110.85H203.656V110.697H203.605V110.544H203.554V110.39H203.503V110.237H203.452V110.084H203.401V109.931H203.35V109.778H203.299V109.625H203.248V109.471H203.196V109.318H203.145V109.165H203.094V109.012H203.043V108.859H202.992V108.705H202.941V108.552H202.89V108.399H202.839V108.246H202.788V108.093H202.737V107.939H202.686V107.786H202.635V107.633H202.584V107.48H202.533V107.327H202.482V107.173H202.43V107.02H202.379V106.867H202.328V106.714H202.277V106.561H202.226V106.407H202.175V106.254H202.124V106.101H202.073V105.948H202.022V105.795H201.971V105.642H201.92V105.488H201.869V105.335H201.818V105.182H201.767V105.029H201.716V104.876H201.665V104.722H201.613V104.569H201.562V104.416H201.511V104.263H201.46V104.11H201.409V103.956H201.358V103.803H201.307V103.65H201.256V103.497H201.205V103.344H201.154V103.19H201.103V103.037H201.052V102.884H201.001V102.731H200.95V102.578H200.899V102.424H200.847V102.271H200.796V102.118H200.745V101.965H200.694V101.812H200.643V101.658H200.592V101.505H200.541V101.352H200.49V101.199H200.439V101.046H200.388V100.893H200.337V100.739H200.286V100.586H200.235V100.433H200.184V100.28H200.133V100.127H200.082V99.9734H200.03V99.8202H199.979V99.667H199.928V99.5138H199.877V99.3606H199.826V99.2074H199.775V99.0542H199.724V98.901H199.673V98.7478H199.622V98.5946H199.571V98.4414H199.52V98.2882H199.469V98.135H199.418V97.9818H199.367V97.8286H199.316V97.6755H199.264V97.5223H199.213V97.3691H199.162V97.2159H199.111V97.0627H199.06V96.9095H199.009V96.7563H198.958V96.6031H198.907V96.4499H198.856V96.2967H198.805V96.1435H198.754V95.9903H198.703V95.8371H198.652V95.6839H198.601V95.5307H198.55V95.3776H198.499V95.2244H198.447V95.0712H198.396V94.918H198.345V94.7648H198.294V94.6116H198.243V94.4584H198.192V94.3052H198.141V94.152H198.09V93.9988H198.039V93.8456H197.988V93.6924H197.937V93.5392H197.886V93.386H197.835V93.2328H197.784V93.0797H197.733V92.9265H197.681V92.7733H197.63V92.6201H197.579V92.4669H197.528V92.3137H197.477V92.1605H197.426V92.0073H197.375V91.8541H197.324V91.7009H197.273V91.5477H197.222V91.3945H197.171V91.2413H197.12V91.0881H197.069V91.0371H197.018V91.1903H196.967V91.3945H196.916V91.5477H196.864V91.7009H196.813V91.8541H196.762V92.0073H196.711V92.2116H196.66V92.3647H196.609V92.5179H196.558V92.6711H196.507V92.8243H196.456V93.0286H196.405V93.1818H196.354V93.335H196.303V93.4882H196.252V93.6414H196.201V93.7946H196.15V93.9988H196.099V94.152H196.047V94.3052H195.996V94.4584H195.945V94.6116H195.894V94.8158H195.843V94.969H195.792V95.1222H195.741V95.2754H195.69V95.4286H195.639V95.6329H195.588V95.7861H195.537V95.9393H195.486V96.0925H195.435V96.2456H195.384V96.3988H195.333V96.6031H195.281V96.7563H195.23V96.9095H195.179V97.0627H195.128V97.2159H195.077V97.4201H195.026V97.5733H194.975V97.7265H194.924V97.8797H194.873V98.0329H194.822V98.1861H194.771V98.3904H194.72V98.5435H194.669V98.6967H194.618V98.8499H194.567V99.0031H194.516V99.2074H194.464V99.3606H194.413V99.5138H194.362V99.667H194.311V99.8202H194.26V100.024H194.209V100.178H194.158V100.331H194.107V100.484H194.056V100.637H194.005V100.79H193.954V100.995H193.903V101.148H193.852V101.301H193.801V101.454H193.75V101.607H193.698V101.812H193.647V101.965H193.596V102.118H193.545V102.271H193.494V102.424H193.443V102.578H193.392V102.782H193.341V102.935H193.29V103.088H193.239V103.241H193.188V103.395H193.137V103.599H193.086V103.752H193.035V103.905H192.984V104.059H192.933V104.212H192.881V104.416H192.83V104.569H192.779V104.722H192.728V104.876H192.677V105.029H192.626V105.182H192.575V105.386H192.524V105.539H192.473V105.693H192.422V105.846H192.371V105.999H192.32V106.203H192.269V106.356H192.218V106.51H192.167V106.663H192.115V106.816H192.064V107.02H192.013V107.173H191.962V107.327H191.911V107.48H191.86V107.633H191.809V107.786H191.758V107.99H191.707V108.144H191.656V108.297H191.605V108.45H191.554V108.603H191.503V108.807H191.452V108.961H191.401V109.114H191.35V109.267H191.298V109.42H191.247V109.573H191.196V109.778H191.145V109.931H191.094V110.084H191.043V110.237H190.992V110.39H190.941V110.595H190.89V110.748H190.839V110.901H190.788V111.054H190.737V111.208H190.686V111.412H190.635V111.565H190.584V111.718H190.532V111.871H190.481V112.025H190.43V112.178H190.379V112.382H190.328V112.535H190.277V112.688H190.226V112.842H190.175V112.995H190.124V113.199H190.073V113.352H190.022V113.505H189.971V113.659H189.92V113.812H189.869V113.965H189.818V114.169H189.767V114.322H189.715V114.476H189.664V114.629H189.613V114.782H189.562V114.986H189.511V115.139H189.46V115.293H189.409V115.446H189.358V115.599H189.307V115.803H189.256V115.957H189.205V116.11H189.154V116.263H189.103V116.416H189.052V116.569H189.001V116.774H188.949V116.927H188.898V117.08H188.847V117.233H188.796V117.386H188.745V117.591H188.694V117.744H188.643V117.897H188.592V118.05H188.541V118.203H188.49V118.357H188.439V118.561H188.388V118.714H188.337V118.867H188.286V119.02H188.235V119.174H188.184V119.378H188.132V119.531H188.081V119.684H188.03V119.837H187.979V119.991H187.928V120.195H187.877V120.348H187.826V120.501H187.775V120.654H187.724V120.808H187.673V120.961H187.622V121.165H187.571V121.216Z" fill="url(#paint3_linear_1110_7156)"/>
<path d="M56.8867 167.757C56.851 167.757 56.7999 167.756 56.7437 167.754C56.6825 167.752 56.6161 167.751 56.5395 167.751V164.253C56.948 164.175 57.2748 164.135 57.5148 164.135C58.051 164.135 58.4901 164.3 58.8169 164.629C59.1488 164.957 59.3123 165.384 59.3123 165.909C59.3123 166.447 59.108 166.889 58.6995 167.236C58.291 167.584 57.6884 167.757 56.8867 167.757V167.757ZM60.3693 170.393L58.6331 167.981C59.3429 167.823 59.8638 167.555 60.2008 167.174C60.5378 166.793 60.7063 166.345 60.7063 165.829C60.7063 165.344 60.5583 164.928 60.2621 164.579C59.9659 164.229 59.6084 163.989 59.1846 163.859C58.7608 163.729 58.102 163.664 57.2084 163.664H54.1445V163.894H54.4611C54.7777 163.894 55.0178 163.984 55.1812 164.166C55.2986 164.295 55.3548 164.623 55.3548 165.153V170.585C55.3548 171.065 55.3088 171.369 55.222 171.496C55.0688 171.728 54.8186 171.844 54.4611 171.844H54.1445V172.073H57.7497V171.844H57.4178C57.1063 171.844 56.8714 171.753 56.7131 171.571C56.5957 171.443 56.5395 171.114 56.5395 170.585V168.142C56.6059 168.146 56.6671 168.149 56.7335 168.151C56.7948 168.153 56.8509 168.154 56.902 168.154C57.0348 168.154 57.2084 168.15 57.4178 168.142L60.2672 172.073H62.5089V171.844C62.0493 171.794 61.6816 171.679 61.3957 171.496C61.1097 171.315 60.7676 170.947 60.3693 170.393" fill="url(#paint4_linear_1110_7156)"/>
<path d="M72.6373 171.124C72.4382 171.319 72.2339 171.449 72.0195 171.515C71.7999 171.581 71.4578 171.615 70.9829 171.615H69.5581C69.3233 171.615 69.165 171.591 69.0833 171.543C69.0016 171.496 68.9454 171.431 68.9096 171.351C68.879 171.271 68.8586 171.044 68.8586 170.672V167.899H70.7071C71.0594 167.899 71.3199 167.941 71.4884 168.024C71.662 168.107 71.7795 168.22 71.856 168.365C71.9122 168.481 71.9735 168.743 72.0297 169.153H72.2595V166.225H72.0297C72.0042 166.705 71.8867 167.04 71.6722 167.23C71.5088 167.375 71.1871 167.447 70.7071 167.447H68.8586V164.123H71.1667C71.5854 164.123 71.8765 164.154 72.0399 164.216C72.2492 164.302 72.4075 164.429 72.5097 164.594C72.6169 164.759 72.7139 165.064 72.8007 165.506H73.0408L72.9488 163.664H66.4688V163.894H66.7649C67.1122 163.894 67.3624 163.976 67.5105 164.141C67.6177 164.265 67.6688 164.594 67.6688 165.128V170.591C67.6688 171.001 67.6483 171.272 67.5973 171.404C67.5513 171.536 67.4594 171.635 67.3266 171.701C67.153 171.796 66.9641 171.844 66.7649 171.844H66.4688V172.073H72.9488L73.6739 169.965H73.4237C73.1582 170.482 72.8926 170.869 72.6373 171.124" fill="url(#paint5_linear_1110_7156)"/>
<path d="M83.2619 168.169C82.976 167.944 82.4398 167.62 81.6534 167.198C80.6883 166.682 80.0806 166.268 79.8253 165.958C79.6466 165.747 79.5598 165.514 79.5598 165.258C79.5598 164.922 79.6976 164.623 79.9785 164.361C80.2593 164.099 80.6168 163.967 81.0458 163.967C81.4287 163.967 81.7964 164.065 82.1487 164.259C82.5062 164.453 82.7819 164.715 82.9708 165.046C83.1649 165.377 83.2977 165.821 83.3743 166.379H83.6041V163.471H83.3743C83.3283 163.665 83.2773 163.795 83.2058 163.858C83.1394 163.923 83.0525 163.955 82.9453 163.955C82.8483 163.955 82.6849 163.903 82.4551 163.8C81.9547 163.581 81.4798 163.471 81.0355 163.471C80.3206 163.471 79.7283 163.689 79.2687 164.125C78.804 164.562 78.5742 165.081 78.5742 165.685C78.5742 166.032 78.6508 166.351 78.8091 166.64C78.9674 166.929 79.1972 167.194 79.4985 167.433C79.8049 167.674 80.3155 167.995 81.0355 168.398C81.7555 168.801 82.1947 169.065 82.353 169.19C82.593 169.371 82.7717 169.567 82.8841 169.778C83.0015 169.989 83.0577 170.198 83.0577 170.405C83.0577 170.777 82.9045 171.099 82.6083 171.372C82.307 171.645 81.8985 171.782 81.3828 171.782C80.9334 171.782 80.5249 171.682 80.1521 171.484C79.7743 171.285 79.4985 171.037 79.3147 170.736C79.1359 170.437 78.9878 169.985 78.8806 169.382H78.6508V172.265H78.8806C78.9112 172.071 78.9572 171.942 79.0134 171.881C79.0746 171.818 79.1564 171.788 79.2585 171.788C79.3708 171.788 79.6262 171.853 80.0245 171.983C80.4279 172.113 80.6934 172.189 80.8261 172.209C81.0406 172.246 81.2653 172.265 81.5104 172.265C82.2866 172.265 82.9249 172.035 83.4203 171.574C83.9156 171.113 84.1607 170.564 84.1607 169.927C84.1607 169.592 84.0841 169.272 83.9258 168.966C83.7726 168.66 83.553 168.394 83.2619 168.169Z" fill="url(#paint6_linear_1110_7156)"/>
<path d="M89.1321 163.664L89.0352 165.636H89.27C89.3007 165.256 89.3926 164.954 89.5407 164.731C89.6939 164.508 89.8828 164.356 90.0973 164.278C90.2607 164.22 90.5415 164.191 90.9296 164.191H91.9407V170.616C91.9407 171.088 91.8999 171.389 91.8079 171.521C91.6599 171.737 91.4045 171.844 91.0522 171.844H90.7509V172.073H94.3203V171.844H94.0292C93.7024 171.844 93.4573 171.757 93.3041 171.584C93.1918 171.455 93.1356 171.133 93.1356 170.616V164.191H94.3203C94.6676 164.191 94.9433 164.248 95.1578 164.361C95.3722 164.475 95.5407 164.652 95.6684 164.892C95.7501 165.041 95.8114 165.289 95.8573 165.636H96.0922L96.0003 163.664H89.1321Z" fill="url(#paint7_linear_1110_7156)"/>
<path d="M101.951 168.799L103.417 165.4L104.841 168.799H101.951ZM106.787 170.467L103.861 163.472H103.646L100.685 170.393C100.429 171.001 100.194 171.404 99.985 171.602C99.8829 171.701 99.6531 171.782 99.3008 171.844V172.073H101.951V171.844C101.548 171.815 101.282 171.752 101.159 171.655C101.037 171.557 100.976 171.445 100.976 171.317C100.976 171.156 101.047 170.912 101.19 170.585L101.757 169.258H105.015L105.526 170.467C105.689 170.86 105.771 171.147 105.771 171.329C105.771 171.466 105.709 171.581 105.592 171.676C105.474 171.771 105.25 171.828 104.918 171.844V172.073H108.232V171.844C107.89 171.824 107.624 171.729 107.43 171.562C107.236 171.394 107.022 171.029 106.787 170.467" fill="url(#paint8_linear_1110_7156)"/>
<path d="M118.246 163.895H118.562C118.879 163.895 119.119 163.986 119.282 164.168C119.395 164.3 119.456 164.629 119.456 165.155V168.558C119.456 169.452 119.374 170.086 119.216 170.459C119.058 170.834 118.761 171.141 118.327 171.38C117.893 171.62 117.398 171.74 116.852 171.74C116.418 171.74 116.055 171.664 115.764 171.511C115.468 171.358 115.238 171.163 115.08 170.928C114.927 170.692 114.814 170.364 114.758 169.942C114.697 169.52 114.666 169.146 114.666 168.819V165.155C114.666 164.683 114.717 164.372 114.819 164.224C114.972 164.005 115.218 163.895 115.565 163.895H115.887V163.666H112.256V163.895H112.572C112.889 163.895 113.119 163.975 113.262 164.136C113.405 164.298 113.476 164.637 113.476 165.155V168.441C113.476 169.454 113.543 170.145 113.675 170.512C113.875 171.05 114.212 171.477 114.687 171.796C115.161 172.114 115.856 172.273 116.775 172.273C117.618 172.273 118.287 172.107 118.777 171.774C119.267 171.442 119.594 171.042 119.762 170.577C119.931 170.112 120.013 169.458 120.013 168.615V165.204C120.013 164.736 120.053 164.439 120.145 164.31C120.319 164.034 120.574 163.895 120.906 163.895H121.223V163.666H118.246V163.895" fill="url(#paint9_linear_1110_7156)"/>
<path d="M128.127 167.757C128.091 167.757 128.04 167.756 127.984 167.754C127.928 167.752 127.856 167.751 127.78 167.751V164.253C128.188 164.175 128.515 164.135 128.755 164.135C129.296 164.135 129.73 164.3 130.057 164.629C130.389 164.957 130.552 165.384 130.552 165.909C130.552 166.447 130.348 166.889 129.94 167.236C129.536 167.584 128.929 167.757 128.127 167.757V167.757ZM131.615 170.393L129.873 167.981C130.583 167.823 131.104 167.555 131.441 167.174C131.778 166.793 131.947 166.345 131.947 165.829C131.947 165.344 131.798 164.928 131.502 164.579C131.206 164.229 130.849 163.989 130.425 163.859C130.001 163.729 129.342 163.664 128.449 163.664H125.385V163.894H125.701C126.018 163.894 126.263 163.984 126.421 164.166C126.539 164.295 126.595 164.623 126.595 165.153V170.585C126.595 171.065 126.554 171.369 126.462 171.496C126.314 171.728 126.059 171.844 125.701 171.844H125.385V172.073H128.99V171.844H128.658C128.346 171.844 128.112 171.753 127.953 171.571C127.836 171.443 127.78 171.114 127.78 170.585V168.142C127.846 168.146 127.907 168.149 127.974 168.151C128.035 168.153 128.091 168.154 128.147 168.154C128.28 168.154 128.449 168.15 128.658 168.142L131.507 172.073H133.754V171.844C133.295 171.794 132.922 171.679 132.636 171.496C132.35 171.315 132.008 170.947 131.615 170.393" fill="url(#paint10_linear_1110_7156)"/>
<path d="M140.197 168.799L141.658 165.4L143.087 168.799H140.197ZM145.033 170.467L142.107 163.472H141.887L138.931 170.393C138.675 171.001 138.44 171.404 138.231 171.602C138.129 171.701 137.899 171.782 137.547 171.844V172.073H140.197V171.844C139.794 171.815 139.528 171.752 139.406 171.655C139.283 171.557 139.222 171.445 139.222 171.317C139.222 171.156 139.293 170.912 139.431 170.585L140.003 169.258H143.261L143.767 170.467C143.935 170.86 144.017 171.147 144.017 171.329C144.017 171.466 143.955 171.581 143.838 171.676C143.721 171.771 143.496 171.828 143.159 171.844V172.073H146.478V171.844C146.136 171.824 145.87 171.729 145.676 171.562C145.482 171.394 145.268 171.029 145.033 170.467" fill="url(#paint11_linear_1110_7156)"/>
<path d="M156.497 163.895H156.788C157.12 163.895 157.36 163.981 157.513 164.155C157.63 164.283 157.686 164.605 157.686 165.122V169.972L152.544 163.665H150.262V163.895C150.507 163.895 150.691 163.913 150.808 163.95C151.053 164.028 151.237 164.113 151.365 164.204C151.492 164.295 151.676 164.483 151.921 164.769V170.617C151.921 171.089 151.875 171.39 151.783 171.522C151.635 171.738 151.38 171.845 151.023 171.845H150.731V172.074H153.658V171.845H153.356C153.034 171.845 152.789 171.758 152.631 171.584C152.519 171.456 152.468 171.134 152.468 170.617V165.438L158.008 172.211H158.233V165.122C158.233 164.651 158.279 164.349 158.371 164.217C158.519 164.002 158.769 163.895 159.126 163.895H159.423V163.665H156.497V163.895" fill="url(#paint12_linear_1110_7156)"/>
<path d="M163.898 163.664L163.801 165.636H164.036C164.066 165.256 164.158 164.954 164.306 164.731C164.46 164.508 164.648 164.356 164.863 164.278C165.026 164.22 165.307 164.191 165.7 164.191H166.711V170.616C166.711 171.088 166.665 171.389 166.574 171.521C166.425 171.737 166.17 171.844 165.818 171.844H165.517V172.073H169.086V171.844H168.795C168.468 171.844 168.223 171.757 168.07 171.584C167.957 171.455 167.901 171.133 167.901 170.616V164.191H169.086C169.433 164.191 169.714 164.248 169.923 164.361C170.138 164.475 170.306 164.652 170.434 164.892C170.516 165.041 170.577 165.289 170.623 165.636H170.858L170.766 163.664H163.898Z" fill="url(#paint13_linear_1110_7156)"/>
<path d="M110.405 26.2158C110.405 26.2158 107.341 18.1926 100.498 11.354C93.6609 4.51496 85.6387 1.45009 85.6387 1.45009C85.6387 1.45009 88.7025 9.47384 95.54 16.3124C102.383 23.1514 110.405 26.2158 110.405 26.2158Z" fill="url(#paint14_linear_1110_7156)"/>
<path d="M130.223 16.3124C137.061 9.47384 140.124 1.45009 140.124 1.45009C140.124 1.45009 132.102 4.51496 125.265 11.354C118.427 18.1926 115.363 26.2158 115.363 26.2158C115.363 26.2158 123.386 23.1514 130.223 16.3124Z" fill="url(#paint15_linear_1110_7156)"/>
<path d="M115.363 31.4559C115.363 31.4559 118.427 39.4792 125.265 46.3182C132.102 53.1573 140.124 56.2217 140.124 56.2217C140.124 56.2217 137.061 48.1984 130.223 41.3599C123.386 34.5208 115.363 31.4559 115.363 31.4559Z" fill="url(#paint16_linear_1110_7156)"/>
<path d="M95.54 41.3599C88.7025 48.1984 85.6387 56.2217 85.6387 56.2217C85.6387 56.2217 93.6609 53.1573 100.498 46.3182C107.341 39.4792 110.405 31.4559 110.405 31.4559C110.405 31.4559 102.383 34.5208 95.54 41.3599Z" fill="url(#paint17_linear_1110_7156)"/>
<path d="M85.2095 30.4385C86.0214 30.4385 86.6801 29.9212 86.6801 29.2829C86.6801 28.6446 86.0214 28.1273 85.2095 28.1273C84.3976 28.1273 83.2129 28.6446 83.2129 29.2829C83.2129 29.9212 84.3976 30.4385 85.2095 30.4385Z" fill="url(#paint18_linear_1110_7156)"/>
<path d="M96.1401 28.8522C95.3282 28.6975 94.5571 28.291 94.5571 28.291C94.5571 28.291 91.9069 27.5052 86.8157 21.6557C86.8157 21.6557 83.3178 25.6623 90.9673 28.071L92.4226 28.4764L95.609 29.2827L92.4635 30.0962C82.9348 32.4176 86.8617 36.9092 86.8617 36.9092C91.9528 31.0659 94.4499 30.2575 94.4499 30.2575C94.4499 30.2575 95.2822 29.8505 96.1401 29.7081L98.1674 29.2827L96.1401 28.8522" fill="url(#paint19_linear_1110_7156)"/>
<path d="M139.789 28.1273C138.977 28.1273 138.318 28.6446 138.318 29.2829C138.318 29.9212 138.977 30.4385 139.789 30.4385C140.601 30.4385 141.786 29.9212 141.786 29.2829C141.786 28.6446 140.601 28.1273 139.789 28.1273Z" fill="url(#paint20_linear_1110_7156)"/>
<path d="M128.859 29.7132C129.671 29.8674 130.447 30.2744 130.447 30.2744C130.447 30.2744 133.093 31.0603 138.184 36.9092C138.184 36.9092 141.682 32.9032 134.037 30.494L132.582 30.089L129.39 29.2827L132.536 28.4693C142.065 26.1479 138.143 21.6557 138.143 21.6557C133.047 27.4995 130.55 28.3079 130.55 28.3079C130.55 28.3079 129.717 28.7149 128.859 28.8568V28.8574L126.832 29.2827L128.859 29.7132" fill="url(#paint21_linear_1110_7156)"/>
<path d="M113.654 56.5718C113.654 55.7614 113.138 55.1042 112.5 55.1042C111.861 55.1042 111.346 55.7614 111.346 56.5718C111.346 57.3827 111.861 58.5674 112.5 58.5674C113.138 58.5674 113.654 57.3827 113.654 56.5718Z" fill="url(#paint22_linear_1110_7156)"/>
<path d="M112.07 45.6422C111.912 46.4542 111.508 47.2293 111.508 47.2293C111.508 47.2293 110.722 49.876 104.875 54.9671C104.875 54.9671 108.878 58.4676 111.289 50.8192L111.692 49.3638L112.499 46.1764L113.311 49.3184C115.634 58.8475 120.128 54.9252 120.128 54.9252C114.281 49.8316 113.474 47.332 113.474 47.332C113.474 47.332 113.066 46.5011 112.923 45.6422L112.499 43.6155L112.07 45.6422" fill="url(#paint23_linear_1110_7156)"/>
<path d="M111.346 1.99576C111.346 2.80667 111.861 3.46387 112.5 3.46387C113.138 3.46387 113.654 2.80667 113.654 1.99576C113.654 1.18537 113.138 0.000162293 112.5 0.000162293C111.861 0.000162293 111.346 1.18537 111.346 1.99576Z" fill="url(#paint24_linear_1110_7156)"/>
<path d="M112.928 12.9235C113.086 12.1115 113.49 11.3364 113.49 11.3364C113.49 11.3364 114.276 8.68919 120.128 3.59858C120.128 3.59858 116.119 0.097603 113.709 7.74654L113.306 9.20188L112.499 12.3888L111.687 9.24731C109.364 -0.281824 104.875 3.64045 104.875 3.64045C110.717 8.73412 111.524 11.2337 111.524 11.2337C111.524 11.2337 111.932 12.0645 112.075 12.9229V12.9235L112.499 14.9502L112.928 12.9235" fill="url(#paint25_linear_1110_7156)"/>
<defs>
<linearGradient id="paint0_linear_1110_7156" x1="-4.18728" y1="118.471" x2="224.188" y2="118.471" gradientUnits="userSpaceOnUse">
<stop stop-color="#AD866F"/>
<stop offset="0.00423729" stop-color="#AD866F"/>
<stop offset="0.201271" stop-color="#EFC88A"/>
<stop offset="0.519068" stop-color="#F3D4A9"/>
<stop offset="0.841102" stop-color="#EFC88A"/>
<stop offset="1" stop-color="#AD866F"/>
</linearGradient>
<linearGradient id="paint1_linear_1110_7156" x1="-4.18772" y1="113.277" x2="224.187" y2="113.277" gradientUnits="userSpaceOnUse">
<stop stop-color="#AD866F"/>
<stop offset="0.00423729" stop-color="#AD866F"/>
<stop offset="0.201271" stop-color="#EFC88A"/>
<stop offset="0.519068" stop-color="#F3D4A9"/>
<stop offset="0.841102" stop-color="#EFC88A"/>
<stop offset="1" stop-color="#AD866F"/>
</linearGradient>
<linearGradient id="paint2_linear_1110_7156" x1="-4.1894" y1="113.279" x2="224.186" y2="113.279" gradientUnits="userSpaceOnUse">
<stop stop-color="#AD866F"/>
<stop offset="0.00423729" stop-color="#AD866F"/>
<stop offset="0.201271" stop-color="#EFC88A"/>
<stop offset="0.519068" stop-color="#F3D4A9"/>
<stop offset="0.841102" stop-color="#EFC88A"/>
<stop offset="1" stop-color="#AD866F"/>
</linearGradient>
<linearGradient id="paint3_linear_1110_7156" x1="-4.18644" y1="113.28" x2="224.189" y2="113.28" gradientUnits="userSpaceOnUse">
<stop stop-color="#AD866F"/>
<stop offset="0.00423729" stop-color="#AD866F"/>
<stop offset="0.201271" stop-color="#EFC88A"/>
<stop offset="0.519068" stop-color="#F3D4A9"/>
<stop offset="0.841102" stop-color="#EFC88A"/>
<stop offset="1" stop-color="#AD866F"/>
</linearGradient>
<linearGradient id="paint4_linear_1110_7156" x1="-4.18666" y1="167.869" x2="224.189" y2="167.869" gradientUnits="userSpaceOnUse">
<stop stop-color="#AD866F"/>
<stop offset="0.00423729" stop-color="#AD866F"/>
<stop offset="0.201271" stop-color="#EFC88A"/>
<stop offset="0.519068" stop-color="#F3D4A9"/>
<stop offset="0.841102" stop-color="#EFC88A"/>
<stop offset="1" stop-color="#AD866F"/>
</linearGradient>
<linearGradient id="paint5_linear_1110_7156" x1="-4.18891" y1="167.869" x2="224.185" y2="167.869" gradientUnits="userSpaceOnUse">
<stop stop-color="#AD866F"/>
<stop offset="0.00423729" stop-color="#AD866F"/>
<stop offset="0.201271" stop-color="#EFC88A"/>
<stop offset="0.519068" stop-color="#F3D4A9"/>
<stop offset="0.841102" stop-color="#EFC88A"/>
<stop offset="1" stop-color="#AD866F"/>
</linearGradient>
<linearGradient id="paint6_linear_1110_7156" x1="-4.18621" y1="167.868" x2="224.19" y2="167.868" gradientUnits="userSpaceOnUse">
<stop stop-color="#AD866F"/>
<stop offset="0.00423729" stop-color="#AD866F"/>
<stop offset="0.201271" stop-color="#EFC88A"/>
<stop offset="0.519068" stop-color="#F3D4A9"/>
<stop offset="0.841102" stop-color="#EFC88A"/>
<stop offset="1" stop-color="#AD866F"/>
</linearGradient>
<linearGradient id="paint7_linear_1110_7156" x1="-4.18755" y1="167.869" x2="224.186" y2="167.869" gradientUnits="userSpaceOnUse">
<stop stop-color="#AD866F"/>
<stop offset="0.00423729" stop-color="#AD866F"/>
<stop offset="0.201271" stop-color="#EFC88A"/>
<stop offset="0.519068" stop-color="#F3D4A9"/>
<stop offset="0.841102" stop-color="#EFC88A"/>
<stop offset="1" stop-color="#AD866F"/>
</linearGradient>
<linearGradient id="paint8_linear_1110_7156" x1="-4.18605" y1="167.773" x2="224.188" y2="167.773" gradientUnits="userSpaceOnUse">
<stop stop-color="#AD866F"/>
<stop offset="0.00423729" stop-color="#AD866F"/>
<stop offset="0.201271" stop-color="#EFC88A"/>
<stop offset="0.519068" stop-color="#F3D4A9"/>
<stop offset="0.841102" stop-color="#EFC88A"/>
<stop offset="1" stop-color="#AD866F"/>
</linearGradient>
<linearGradient id="paint9_linear_1110_7156" x1="-4.18676" y1="167.969" x2="224.189" y2="167.969" gradientUnits="userSpaceOnUse">
<stop stop-color="#AD866F"/>
<stop offset="0.00423729" stop-color="#AD866F"/>
<stop offset="0.201271" stop-color="#EFC88A"/>
<stop offset="0.519068" stop-color="#F3D4A9"/>
<stop offset="0.841102" stop-color="#EFC88A"/>
<stop offset="1" stop-color="#AD866F"/>
</linearGradient>
<linearGradient id="paint10_linear_1110_7156" x1="-4.18568" y1="167.869" x2="224.188" y2="167.869" gradientUnits="userSpaceOnUse">
<stop stop-color="#AD866F"/>
<stop offset="0.00423729" stop-color="#AD866F"/>
<stop offset="0.201271" stop-color="#EFC88A"/>
<stop offset="0.519068" stop-color="#F3D4A9"/>
<stop offset="0.841102" stop-color="#EFC88A"/>
<stop offset="1" stop-color="#AD866F"/>
</linearGradient>
<linearGradient id="paint11_linear_1110_7156" x1="-4.18709" y1="167.773" x2="224.187" y2="167.773" gradientUnits="userSpaceOnUse">
<stop stop-color="#AD866F"/>
<stop offset="0.00423729" stop-color="#AD866F"/>
<stop offset="0.201271" stop-color="#EFC88A"/>
<stop offset="0.519068" stop-color="#F3D4A9"/>
<stop offset="0.841102" stop-color="#EFC88A"/>
<stop offset="1" stop-color="#AD866F"/>
</linearGradient>
<linearGradient id="paint12_linear_1110_7156" x1="-4.18729" y1="167.938" x2="224.187" y2="167.938" gradientUnits="userSpaceOnUse">
<stop stop-color="#AD866F"/>
<stop offset="0.00423729" stop-color="#AD866F"/>
<stop offset="0.201271" stop-color="#EFC88A"/>
<stop offset="0.519068" stop-color="#F3D4A9"/>
<stop offset="0.841102" stop-color="#EFC88A"/>
<stop offset="1" stop-color="#AD866F"/>
</linearGradient>
<linearGradient id="paint13_linear_1110_7156" x1="-4.18615" y1="167.869" x2="224.189" y2="167.869" gradientUnits="userSpaceOnUse">
<stop stop-color="#AD866F"/>
<stop offset="0.00423729" stop-color="#AD866F"/>
<stop offset="0.201271" stop-color="#EFC88A"/>
<stop offset="0.519068" stop-color="#F3D4A9"/>
<stop offset="0.841102" stop-color="#EFC88A"/>
<stop offset="1" stop-color="#AD866F"/>
</linearGradient>
<linearGradient id="paint14_linear_1110_7156" x1="-4.18878" y1="13.8332" x2="224.186" y2="13.8332" gradientUnits="userSpaceOnUse">
<stop stop-color="#AD866F"/>
<stop offset="0.00423729" stop-color="#AD866F"/>
<stop offset="0.201271" stop-color="#EFC88A"/>
<stop offset="0.519068" stop-color="#F3D4A9"/>
<stop offset="0.841102" stop-color="#EFC88A"/>
<stop offset="1" stop-color="#AD866F"/>
</linearGradient>
<linearGradient id="paint15_linear_1110_7156" x1="-4.18887" y1="13.8332" x2="224.186" y2="13.8332" gradientUnits="userSpaceOnUse">
<stop stop-color="#AD866F"/>
<stop offset="0.00423729" stop-color="#AD866F"/>
<stop offset="0.201271" stop-color="#EFC88A"/>
<stop offset="0.519068" stop-color="#F3D4A9"/>
<stop offset="0.841102" stop-color="#EFC88A"/>
<stop offset="1" stop-color="#AD866F"/>
</linearGradient>
<linearGradient id="paint16_linear_1110_7156" x1="-4.18887" y1="43.8391" x2="224.186" y2="43.8391" gradientUnits="userSpaceOnUse">
<stop stop-color="#AD866F"/>
<stop offset="0.00423729" stop-color="#AD866F"/>
<stop offset="0.201271" stop-color="#EFC88A"/>
<stop offset="0.519068" stop-color="#F3D4A9"/>
<stop offset="0.841102" stop-color="#EFC88A"/>
<stop offset="1" stop-color="#AD866F"/>
</linearGradient>
<linearGradient id="paint17_linear_1110_7156" x1="-4.18878" y1="43.8391" x2="224.186" y2="43.8391" gradientUnits="userSpaceOnUse">
<stop stop-color="#AD866F"/>
<stop offset="0.00423729" stop-color="#AD866F"/>
<stop offset="0.201271" stop-color="#EFC88A"/>
<stop offset="0.519068" stop-color="#F3D4A9"/>
<stop offset="0.841102" stop-color="#EFC88A"/>
<stop offset="1" stop-color="#AD866F"/>
</linearGradient>
<linearGradient id="paint18_linear_1110_7156" x1="-4.18825" y1="29.2829" x2="224.185" y2="29.2829" gradientUnits="userSpaceOnUse">
<stop stop-color="#AD866F"/>
<stop offset="0.00423729" stop-color="#AD866F"/>
<stop offset="0.201271" stop-color="#EFC88A"/>
<stop offset="0.519068" stop-color="#F3D4A9"/>
<stop offset="0.841102" stop-color="#EFC88A"/>
<stop offset="1" stop-color="#AD866F"/>
</linearGradient>
<linearGradient id="paint19_linear_1110_7156" x1="-4.18615" y1="29.2827" x2="224.189" y2="29.2827" gradientUnits="userSpaceOnUse">
<stop stop-color="#AD866F"/>
<stop offset="0.00423729" stop-color="#AD866F"/>
<stop offset="0.201271" stop-color="#EFC88A"/>
<stop offset="0.519068" stop-color="#F3D4A9"/>
<stop offset="0.841102" stop-color="#EFC88A"/>
<stop offset="1" stop-color="#AD866F"/>
</linearGradient>
<linearGradient id="paint20_linear_1110_7156" x1="-4.18798" y1="29.2829" x2="224.188" y2="29.2829" gradientUnits="userSpaceOnUse">
<stop stop-color="#AD866F"/>
<stop offset="0.00423729" stop-color="#AD866F"/>
<stop offset="0.201271" stop-color="#EFC88A"/>
<stop offset="0.519068" stop-color="#F3D4A9"/>
<stop offset="0.841102" stop-color="#EFC88A"/>
<stop offset="1" stop-color="#AD866F"/>
</linearGradient>
<linearGradient id="paint21_linear_1110_7156" x1="-4.18949" y1="29.2827" x2="224.186" y2="29.2827" gradientUnits="userSpaceOnUse">
<stop stop-color="#AD866F"/>
<stop offset="0.00423729" stop-color="#AD866F"/>
<stop offset="0.201271" stop-color="#EFC88A"/>
<stop offset="0.519068" stop-color="#F3D4A9"/>
<stop offset="0.841102" stop-color="#EFC88A"/>
<stop offset="1" stop-color="#AD866F"/>
</linearGradient>
<linearGradient id="paint22_linear_1110_7156" x1="-4.18809" y1="56.8358" x2="224.188" y2="56.8358" gradientUnits="userSpaceOnUse">
<stop stop-color="#AD866F"/>
<stop offset="0.00423729" stop-color="#AD866F"/>
<stop offset="0.201271" stop-color="#EFC88A"/>
<stop offset="0.519068" stop-color="#F3D4A9"/>
<stop offset="0.841102" stop-color="#EFC88A"/>
<stop offset="1" stop-color="#AD866F"/>
</linearGradient>
<linearGradient id="paint23_linear_1110_7156" x1="-4.18849" y1="49.6912" x2="224.187" y2="49.6912" gradientUnits="userSpaceOnUse">
<stop stop-color="#AD866F"/>
<stop offset="0.00423729" stop-color="#AD866F"/>
<stop offset="0.201271" stop-color="#EFC88A"/>
<stop offset="0.519068" stop-color="#F3D4A9"/>
<stop offset="0.841102" stop-color="#EFC88A"/>
<stop offset="1" stop-color="#AD866F"/>
</linearGradient>
<linearGradient id="paint24_linear_1110_7156" x1="-4.18809" y1="1.73227" x2="224.188" y2="1.73227" gradientUnits="userSpaceOnUse">
<stop stop-color="#AD866F"/>
<stop offset="0.00423729" stop-color="#AD866F"/>
<stop offset="0.201271" stop-color="#EFC88A"/>
<stop offset="0.519068" stop-color="#F3D4A9"/>
<stop offset="0.841102" stop-color="#EFC88A"/>
<stop offset="1" stop-color="#AD866F"/>
</linearGradient>
<linearGradient id="paint25_linear_1110_7156" x1="-4.18849" y1="8.87455" x2="224.187" y2="8.87455" gradientUnits="userSpaceOnUse">
<stop stop-color="#AD866F"/>
<stop offset="0.00423729" stop-color="#AD866F"/>
<stop offset="0.201271" stop-color="#EFC88A"/>
<stop offset="0.519068" stop-color="#F3D4A9"/>
<stop offset="0.841102" stop-color="#EFC88A"/>
<stop offset="1" stop-color="#AD866F"/>
</linearGradient>
</defs>
</svg>
